<svg xmlns="http://www.w3.org/2000/svg" xmlns:xlink="http://www.w3.org/1999/xlink" width="500" zoomAndPan="magnify" viewBox="0 0 375 374.999991" height="500" preserveAspectRatio="xMidYMid meet" version="1.0"><defs><g/><clipPath id="c8f28d91dc"><rect x="0" width="375" y="0" height="92"/></clipPath><clipPath id="ae871b465a"><path d="M 218 18.75 L 259 18.75 L 259 173 L 218 173 Z M 218 18.75 " clip-rule="nonzero"/></clipPath><clipPath id="83aa134f07"><path d="M 58 53 L 322.578125 53 L 322.578125 257 L 58 257 Z M 58 53 " clip-rule="nonzero"/></clipPath></defs><g transform="matrix(1, 0, 0, 1, 0, 270)"><g clip-path="url(#c8f28d91dc)"><g fill="#217a46" fill-opacity="1"><g transform="translate(-1.458453, 71.42207)"><g><path d="M 15.671875 -21.015625 L 15.671875 -7.921875 L 38.515625 -7.921875 L 38.515625 0 L 6.21875 0 L 6.21875 -47.84375 L 38 -47.84375 L 38 -39.9375 L 15.671875 -39.9375 L 15.671875 -28.734375 L 35.1875 -28.734375 L 35.1875 -21.015625 Z M 15.671875 -21.015625 "/></g></g></g><g fill="#217a46" fill-opacity="1"><g transform="translate(41.022447, 71.42207)"><g><path d="M 26.15625 0.6875 C 21.75 0.6875 17.863281 -0.226562 14.5 -2.0625 C 11.132812 -3.894531 8.503906 -6.648438 6.609375 -10.328125 C 4.710938 -14.003906 3.765625 -18.535156 3.765625 -23.921875 C 3.765625 -29.316406 4.710938 -33.851562 6.609375 -37.53125 C 8.503906 -41.207031 11.132812 -43.957031 14.5 -45.78125 C 17.863281 -47.613281 21.75 -48.53125 26.15625 -48.53125 C 30.757812 -48.53125 34.671875 -47.628906 37.890625 -45.828125 C 41.109375 -44.035156 43.40625 -41.296875 44.78125 -37.609375 L 37.875 -33.390625 L 37.046875 -33.421875 C 36.023438 -35.910156 34.632812 -37.691406 32.875 -38.765625 C 31.125 -39.847656 28.882812 -40.390625 26.15625 -40.390625 C 22.175781 -40.390625 19.070312 -39.070312 16.84375 -36.4375 C 14.625 -33.8125 13.515625 -29.640625 13.515625 -23.921875 C 13.515625 -18.234375 14.625 -14.070312 16.84375 -11.4375 C 19.070312 -8.8125 22.175781 -7.5 26.15625 -7.5 C 32.375 -7.5 36.179688 -10.519531 37.578125 -16.5625 L 38.390625 -16.5625 L 45.359375 -12.921875 C 44.054688 -8.390625 41.820312 -4.988281 38.65625 -2.71875 C 35.488281 -0.445312 31.320312 0.6875 26.15625 0.6875 Z M 26.15625 0.6875 "/></g></g></g><g fill="#217a46" fill-opacity="1"><g transform="translate(89.296345, 71.42207)"><g><path d="M 26.078125 0.6875 C 21.691406 0.6875 17.820312 -0.207031 14.46875 -2 C 11.125 -3.789062 8.503906 -6.519531 6.609375 -10.1875 C 4.710938 -13.863281 3.765625 -18.441406 3.765625 -23.921875 C 3.765625 -29.398438 4.710938 -33.976562 6.609375 -37.65625 C 8.503906 -41.332031 11.125 -44.0625 14.46875 -45.84375 C 17.820312 -47.632812 21.691406 -48.53125 26.078125 -48.53125 C 30.472656 -48.53125 34.335938 -47.640625 37.671875 -45.859375 C 41.015625 -44.085938 43.628906 -41.359375 45.515625 -37.671875 C 47.398438 -33.984375 48.34375 -29.398438 48.34375 -23.921875 C 48.34375 -18.441406 47.398438 -13.859375 45.515625 -10.171875 C 43.628906 -6.484375 41.015625 -3.75 37.671875 -1.96875 C 34.335938 -0.195312 30.472656 0.6875 26.078125 0.6875 Z M 26.078125 -7.53125 C 30.140625 -7.53125 33.238281 -8.832031 35.375 -11.4375 C 37.519531 -14.039062 38.59375 -18.203125 38.59375 -23.921875 C 38.59375 -29.640625 37.519531 -33.804688 35.375 -36.421875 C 33.238281 -39.046875 30.140625 -40.359375 26.078125 -40.359375 C 22.003906 -40.359375 18.890625 -39.046875 16.734375 -36.421875 C 14.585938 -33.804688 13.515625 -29.640625 13.515625 -23.921875 C 13.515625 -18.203125 14.585938 -14.039062 16.734375 -11.4375 C 18.890625 -8.832031 22.003906 -7.53125 26.078125 -7.53125 Z M 26.078125 -7.53125 "/></g></g></g><g fill="#217a46" fill-opacity="1"><g transform="translate(142.774122, 71.42207)"><g><path d="M 15.390625 0 L 6.21875 0 L 6.21875 -47.84375 L 17.046875 -47.84375 L 36.265625 -17.015625 L 37.109375 -17.15625 L 37.109375 -47.84375 L 46.21875 -47.84375 L 46.21875 0 L 36.53125 0 L 16.203125 -32.921875 L 15.390625 -32.796875 Z M 15.390625 0 "/></g></g></g><g fill="#217a46" fill-opacity="1"><g transform="translate(196.579189, 71.42207)"><g><path d="M 21.203125 0.6875 C 17.890625 0.6875 14.941406 0.28125 12.359375 -0.53125 C 9.773438 -1.351562 7.617188 -2.429688 5.890625 -3.765625 C 4.171875 -5.097656 2.851562 -6.5625 1.9375 -8.15625 L 7.140625 -14.5 L 7.953125 -14.5 C 9.390625 -12.363281 11.21875 -10.660156 13.4375 -9.390625 C 15.65625 -8.128906 18.242188 -7.5 21.203125 -7.5 C 23.734375 -7.5 25.644531 -8.03125 26.9375 -9.09375 C 28.226562 -10.164062 28.875 -11.640625 28.875 -13.515625 C 28.875 -14.648438 28.664062 -15.597656 28.25 -16.359375 C 27.832031 -17.128906 27.144531 -17.785156 26.1875 -18.328125 C 25.226562 -18.867188 23.929688 -19.335938 22.296875 -19.734375 L 16.140625 -21.140625 C 11.835938 -22.117188 8.632812 -23.75 6.53125 -26.03125 C 4.425781 -28.3125 3.375 -31.273438 3.375 -34.921875 C 3.375 -37.628906 4.050781 -40.007812 5.40625 -42.0625 C 6.757812 -44.113281 8.726562 -45.703125 11.3125 -46.828125 C 13.894531 -47.960938 16.988281 -48.53125 20.59375 -48.53125 C 24.28125 -48.53125 27.4375 -48.046875 30.0625 -47.078125 C 32.6875 -46.109375 34.90625 -44.617188 36.71875 -42.609375 L 32.046875 -36.203125 L 31.21875 -36.203125 C 29.863281 -37.617188 28.3125 -38.679688 26.5625 -39.390625 C 24.820312 -40.097656 22.832031 -40.453125 20.59375 -40.453125 C 17.988281 -40.453125 16.007812 -39.992188 14.65625 -39.078125 C 13.3125 -38.160156 12.640625 -36.894531 12.640625 -35.28125 C 12.640625 -33.78125 13.113281 -32.582031 14.0625 -31.6875 C 15.007812 -30.789062 16.648438 -30.09375 18.984375 -29.59375 L 25.265625 -28.28125 C 29.910156 -27.300781 33.28125 -25.632812 35.375 -23.28125 C 37.46875 -20.9375 38.515625 -17.878906 38.515625 -14.109375 C 38.515625 -11.117188 37.867188 -8.515625 36.578125 -6.296875 C 35.296875 -4.085938 33.359375 -2.367188 30.765625 -1.140625 C 28.171875 0.078125 24.984375 0.6875 21.203125 0.6875 Z M 21.203125 0.6875 "/></g></g></g><g fill="#217a46" fill-opacity="1"><g transform="translate(239.02736, 71.42207)"><g><path d="M 15.671875 -21.015625 L 15.671875 -7.921875 L 38.515625 -7.921875 L 38.515625 0 L 6.21875 0 L 6.21875 -47.84375 L 38 -47.84375 L 38 -39.9375 L 15.671875 -39.9375 L 15.671875 -28.734375 L 35.1875 -28.734375 L 35.1875 -21.015625 Z M 15.671875 -21.015625 "/></g></g></g><g fill="#217a46" fill-opacity="1"><g transform="translate(281.50826, 71.42207)"><g><path d="M 15.390625 0 L 6.21875 0 L 6.21875 -47.84375 L 17.046875 -47.84375 L 36.265625 -17.015625 L 37.109375 -17.15625 L 37.109375 -47.84375 L 46.21875 -47.84375 L 46.21875 0 L 36.53125 0 L 16.203125 -32.921875 L 15.390625 -32.796875 Z M 15.390625 0 "/></g></g></g><g fill="#217a46" fill-opacity="1"><g transform="translate(335.313327, 71.42207)"><g><path d="M 21.203125 0.6875 C 17.890625 0.6875 14.941406 0.28125 12.359375 -0.53125 C 9.773438 -1.351562 7.617188 -2.429688 5.890625 -3.765625 C 4.171875 -5.097656 2.851562 -6.5625 1.9375 -8.15625 L 7.140625 -14.5 L 7.953125 -14.5 C 9.390625 -12.363281 11.21875 -10.660156 13.4375 -9.390625 C 15.65625 -8.128906 18.242188 -7.5 21.203125 -7.5 C 23.734375 -7.5 25.644531 -8.03125 26.9375 -9.09375 C 28.226562 -10.164062 28.875 -11.640625 28.875 -13.515625 C 28.875 -14.648438 28.664062 -15.597656 28.25 -16.359375 C 27.832031 -17.128906 27.144531 -17.785156 26.1875 -18.328125 C 25.226562 -18.867188 23.929688 -19.335938 22.296875 -19.734375 L 16.140625 -21.140625 C 11.835938 -22.117188 8.632812 -23.75 6.53125 -26.03125 C 4.425781 -28.3125 3.375 -31.273438 3.375 -34.921875 C 3.375 -37.628906 4.050781 -40.007812 5.40625 -42.0625 C 6.757812 -44.113281 8.726562 -45.703125 11.3125 -46.828125 C 13.894531 -47.960938 16.988281 -48.53125 20.59375 -48.53125 C 24.28125 -48.53125 27.4375 -48.046875 30.0625 -47.078125 C 32.6875 -46.109375 34.90625 -44.617188 36.71875 -42.609375 L 32.046875 -36.203125 L 31.21875 -36.203125 C 29.863281 -37.617188 28.3125 -38.679688 26.5625 -39.390625 C 24.820312 -40.097656 22.832031 -40.453125 20.59375 -40.453125 C 17.988281 -40.453125 16.007812 -39.992188 14.65625 -39.078125 C 13.3125 -38.160156 12.640625 -36.894531 12.640625 -35.28125 C 12.640625 -33.78125 13.113281 -32.582031 14.0625 -31.6875 C 15.007812 -30.789062 16.648438 -30.09375 18.984375 -29.59375 L 25.265625 -28.28125 C 29.910156 -27.300781 33.28125 -25.632812 35.375 -23.28125 C 37.46875 -20.9375 38.515625 -17.878906 38.515625 -14.109375 C 38.515625 -11.117188 37.867188 -8.515625 36.578125 -6.296875 C 35.296875 -4.085938 33.359375 -2.367188 30.765625 -1.140625 C 28.171875 0.078125 24.984375 0.6875 21.203125 0.6875 Z M 21.203125 0.6875 "/></g></g></g></g></g><path fill="#27ac52" d="M 111.269531 89.652344 C 86.757812 101.898438 69.429688 119.742188 70.699219 142.074219 L 70.699219 207.851562 C 72.335938 210.441406 74.34375 212.605469 76.136719 214.242188 C 85.4375 222.421875 98.484375 224.484375 111.269531 224.058594 Z M 111.269531 89.652344 " fill-opacity="1" fill-rule="nonzero"/><path fill="#27ac52" d="M 160.449219 73.917969 C 146.558594 76.242188 132.503906 80.304688 119.878906 85.636719 L 119.878906 223.425781 C 124.792969 222.898438 129.703125 221.949219 134.140625 221.105469 C 143.121094 219.097656 151.839844 215.824219 160.449219 211.972656 Z M 160.449219 73.917969 " fill-opacity="1" fill-rule="nonzero"/><path fill="#217a46" d="M 209.632812 58.398438 C 197.375 65.207031 183.640625 70.644531 169.0625 72.652344 L 169.0625 207.429688 C 179.835938 201.730469 189.925781 195.183594 199.171875 188.109375 C 202.605469 185.523438 206.144531 182.671875 209.578125 179.660156 L 209.578125 58.398438 Z M 209.632812 58.398438 " fill-opacity="1" fill-rule="nonzero"/><g clip-path="url(#ae871b465a)"><path fill="#217a46" d="M 258.972656 126.867188 C 258.972656 90.917969 258.972656 54.859375 258.972656 18.75 C 258.972656 18.75 242.488281 37.542969 218.242188 53.066406 L 218.242188 172.164062 C 230.339844 161.394531 241.644531 149.304688 251.46875 136.742188 C 253.636719 134.050781 256.226562 130.777344 258.972656 126.867188 Z M 258.972656 126.867188 " fill-opacity="1" fill-rule="nonzero"/></g><g clip-path="url(#83aa134f07)"><path fill="#27ac52" d="M 58.546875 199.671875 C 58.546875 199.671875 65.519531 244.597656 135.886719 228.707031 C 206.039062 213.027344 276.457031 128.929688 283.429688 97.199219 L 264.203125 94.296875 L 309.578125 53.117188 L 322.574219 107.546875 L 306.359375 102.269531 C 255.539062 238.738281 52.578125 316.5 58.546875 199.671875 Z M 58.546875 199.671875 " fill-opacity="1" fill-rule="nonzero"/></g></svg>